<?xml version="1.0" standalone="no"?>
<!DOCTYPE svg PUBLIC "-//W3C//DTD SVG 20010904//EN"
 "http://www.w3.org/TR/2001/REC-SVG-20010904/DTD/svg10.dtd">
<svg version="1.0" xmlns="http://www.w3.org/2000/svg"
 viewBox="0 0 2600.000000 2604.000000"
 preserveAspectRatio="xMidYMid meet">
<metadata>
Created by potrace 1.13, written by Peter Selinger 2001-2015
</metadata>
<g transform="translate(0.000000,2604.000000) scale(0.100000,-0.100000)"
fill="#FF0000" stroke="none">
<path d="M15425 17573 c-757 -10 -1583 -75 -2930 -229 -691 -78 -1515 -363
-2300 -794 -578 -317 -1193 -735 -1664 -1132 l-115 -96 -12 34 c-16 48 -29 60
-80 80 -99 38 -372 -6 -541 -87 -125 -60 -193 -174 -178 -302 8 -71 44 -171
86 -240 16 -27 29 -50 27 -52 -2 -2 -61 8 -133 21 -830 154 -1110 188 -1555
188 -526 -1 -839 -65 -1278 -264 -505 -229 -1179 -644 -1612 -994 -346 -279
-765 -670 -1197 -1116 -78 -80 -167 -167 -198 -195 -94 -82 -158 -236 -186
-445 -15 -110 -6 -488 15 -638 34 -237 122 -645 179 -831 l14 -45 -58 -38
c-149 -100 -194 -226 -129 -363 29 -61 181 -215 262 -265 l57 -35 3 -80 3 -80
75 -37 c539 -269 1229 -405 2940 -582 1204 -125 2732 -247 4715 -377 418 -27
785 -54 815 -59 247 -43 866 -31 1530 31 575 53 1421 162 1970 253 l145 24 19
-26 c108 -147 327 -238 686 -284 139 -17 745 -17 935 0 492 46 649 91 885 253
330 226 662 661 882 1154 l35 80 1389 459 c764 252 1469 487 1567 522 291 105
505 155 744 174 137 12 301 1 398 -27 33 -9 122 -33 199 -53 136 -35 138 -37
153 -70 50 -120 235 -192 608 -235 177 -21 714 -37 794 -24 147 23 267 87 387
204 150 147 234 302 338 621 117 359 173 575 230 884 144 792 122 1751 -60
2610 -40 188 -86 295 -175 414 -126 166 -319 255 -494 228 -68 -11 -73 -10
-185 28 -191 65 -258 75 -485 75 -263 0 -331 -14 -667 -134 -178 -65 -457 -45
-681 49 -171 71 -328 176 -496 333 -75 70 -126 108 -176 132 -71 35 -180 59
-221 49 -17 -4 -39 8 -89 47 -251 197 -904 496 -1809 828 -685 252 -1247 362
-2176 425 -299 21 -855 34 -1205 29z m325 -402 c459 -31 675 -63 785 -115 44
-21 68 -25 195 -28 115 -4 156 -9 196 -25 117 -46 174 -126 173 -242 0 -37 -8
-95 -18 -131 -25 -91 -627 -1980 -633 -1986 -3 -2 -84 7 -179 21 -337 48 -483
59 -839 59 -264 0 -363 -4 -465 -17 -132 -18 -325 -58 -393 -81 -30 -10 -119
-10 -497 5 -2751 107 -5636 192 -5902 174 -57 -4 -103 -4 -103 -1 0 9 322 263
600 473 1293 976 2409 1615 3145 1802 208 52 413 66 1330 91 226 6 453 12 505
14 233 7 1960 -3 2100 -13z m2416 -186 c753 -109 1568 -367 2124 -670 122 -67
283 -162 332 -196 l27 -19 -30 -73 c-131 -318 -345 -593 -559 -717 -113 -65
-120 -66 -250 -36 -475 109 -848 108 -999 -1 -20 -15 -81 -82 -136 -151 -124
-155 -337 -377 -407 -425 -52 -35 -57 -36 -258 -61 -570 -71 -905 -89 -996
-55 -15 5 -20 14 -18 31 178 1166 417 1946 694 2261 43 48 135 114 178 127 47
14 123 11 298 -15z m5570 -2653 c199 -103 340 -405 401 -858 21 -160 24 -634
5 -829 -55 -555 -172 -1052 -317 -1350 -120 -247 -219 -285 -356 -138 -170
183 -314 608 -376 1113 -24 203 -24 686 0 890 71 584 263 1075 462 1184 39 21
127 15 181 -12z m-9611 -161 c-21 -19 -675 -462 -1095 -741 -1149 -764 -1968
-1260 -2290 -1389 -79 -31 -434 -112 -680 -155 -284 -49 -453 -58 -487 -24
-11 12 -6 24 36 84 141 201 335 368 513 440 46 19 78 34 72 34 -6 0 -251 -20
-545 -45 -716 -60 -1303 -105 -1353 -104 -31 1 -1 11 114 40 1477 376 2722
762 3410 1056 193 82 1254 612 1447 722 l121 69 294 10 c421 13 453 13 443 3z
m-10948 -738 c-20 -191 -29 -458 -19 -588 6 -77 10 -141 8 -142 -2 -2 -21 41
-43 94 -23 54 -45 96 -49 94 -5 -2 -119 -58 -254 -125 -378 -188 -676 -313
-697 -293 -11 12 262 337 436 519 107 112 284 272 387 350 72 55 215 148 228
148 5 0 6 -26 3 -57z m13151 -202 c192 -56 427 -211 579 -381 559 -626 729
-1832 383 -2718 -289 -741 -870 -1192 -1536 -1192 -363 0 -637 118 -890 382
-162 169 -259 322 -378 590 -88 197 -124 309 -143 436 l-15 109 31 209 c59
387 201 1021 306 1370 113 370 314 744 500 929 118 118 288 200 525 254 148
34 212 40 395 36 137 -2 184 -7 243 -24z m-13100 -693 c23 -52 21 -65 -1 -20
-16 29 -33 80 -25 72 3 -3 15 -26 26 -52z"/>
</g>
</svg>
