<svg aria-hidden="true" style="position: absolute; width: 0; height: 0; overflow: hidden;" version="1.1" xmlns="http://www.w3.org/2000/svg" xmlns:xlink="http://www.w3.org/1999/xlink">
<defs>
<symbol id="icon-heart" viewBox="0 0 32 32">
<path stroke-linejoin="round" stroke-linecap="round" stroke-miterlimit="4" stroke-width="2.6667" d="M27.787 6.147c-0.681-0.681-1.49-1.222-2.38-1.591s-1.844-0.559-2.807-0.559c-0.963 0-1.917 0.19-2.807 0.559s-1.698 0.909-2.379 1.591l-1.413 1.413-1.413-1.413c-1.376-1.376-3.241-2.148-5.187-2.148s-3.811 0.773-5.187 2.148c-1.376 1.376-2.148 3.241-2.148 5.187s0.773 3.811 2.148 5.187l11.787 11.787 11.787-11.787c0.681-0.681 1.222-1.49 1.591-2.38s0.558-1.844 0.558-2.807-0.19-1.917-0.558-2.807c-0.369-0.89-0.909-1.699-1.591-2.38z"></path>
</symbol>
<symbol id="icon-cross" viewBox="0 0 32 32">
<path stroke-linejoin="round" stroke-linecap="round" stroke-miterlimit="4" stroke-width="2.4" d="M24 8l-16 16"></path>
<path stroke-linejoin="round" stroke-linecap="round" stroke-miterlimit="4" stroke-width="2.4" d="M8 8l16 16"></path>
</symbol>
</defs>
<symbol id="icon-car-logo" viewBox="0 0 32 32">
<path d="M18.955 10.405c-0.93 0.012-1.945 0.092-3.601 0.281-0.849 0.096-1.862 0.446-2.826 0.976-0.71 0.39-1.466 0.903-2.045 1.391l-0.141 0.118-0.015-0.042c-0.020-0.059-0.036-0.074-0.098-0.098-0.122-0.047-0.457 0.007-0.665 0.107-0.154 0.074-0.237 0.214-0.219 0.371 0.010 0.087 0.054 0.21 0.106 0.295 0.020 0.033 0.036 0.061 0.033 0.064s-0.075-0.010-0.163-0.026c-1.020-0.189-1.364-0.231-1.911-0.231-0.646 0.001-1.031 0.080-1.571 0.324-0.621 0.281-1.449 0.791-1.981 1.222-0.425 0.343-0.94 0.823-1.471 1.371-0.096 0.098-0.205 0.205-0.243 0.24-0.115 0.101-0.194 0.29-0.229 0.547-0.018 0.135-0.007 0.6 0.018 0.784 0.042 0.291 0.15 0.793 0.22 1.021l0.017 0.055-0.071 0.047c-0.183 0.123-0.238 0.278-0.159 0.446 0.036 0.075 0.222 0.264 0.322 0.326l0.070 0.043 0.007 0.197 0.092 0.045c0.662 0.331 1.51 0.498 3.613 0.715 1.48 0.154 3.357 0.304 5.794 0.463 0.514 0.033 0.965 0.066 1.002 0.073 0.304 0.053 1.064 0.038 1.88-0.038 0.707-0.065 1.746-0.199 2.421-0.311l0.178-0.029 0.023 0.032c0.133 0.181 0.402 0.292 0.843 0.349 0.171 0.021 0.916 0.021 1.149 0 0.605-0.057 0.798-0.112 1.088-0.311 0.406-0.278 0.814-0.812 1.084-1.418l0.043-0.098 1.707-0.564c0.939-0.31 1.805-0.598 1.926-0.641 0.358-0.129 0.621-0.19 0.914-0.214 0.168-0.015 0.37-0.001 0.489 0.033 0.041 0.011 0.15 0.041 0.245 0.065 0.167 0.043 0.17 0.045 0.188 0.086 0.061 0.147 0.289 0.236 0.747 0.289 0.218 0.026 0.877 0.045 0.976 0.029 0.181-0.028 0.328-0.107 0.476-0.251 0.184-0.181 0.288-0.371 0.415-0.763 0.144-0.441 0.213-0.707 0.283-1.086 0.177-0.973 0.15-2.152-0.074-3.207-0.049-0.231-0.106-0.363-0.215-0.509-0.155-0.204-0.392-0.313-0.607-0.28-0.084 0.014-0.090 0.012-0.227-0.034-0.235-0.080-0.317-0.092-0.596-0.092-0.323 0-0.407 0.017-0.82 0.165-0.219 0.080-0.562 0.055-0.837-0.060-0.21-0.087-0.403-0.216-0.61-0.409-0.092-0.086-0.155-0.133-0.216-0.162-0.087-0.043-0.221-0.072-0.272-0.060-0.021 0.005-0.048-0.010-0.109-0.058-0.308-0.242-1.111-0.61-2.223-1.018-0.842-0.31-1.532-0.445-2.674-0.522-0.367-0.026-1.051-0.042-1.481-0.036zM19.355 10.899c0.564 0.038 0.829 0.077 0.965 0.141 0.054 0.026 0.084 0.031 0.24 0.034 0.141 0.005 0.192 0.011 0.241 0.031 0.144 0.057 0.214 0.155 0.213 0.297 0 0.045-0.010 0.117-0.022 0.161-0.031 0.112-0.77 2.433-0.778 2.441-0.004 0.002-0.103-0.009-0.22-0.026-0.414-0.059-0.594-0.072-1.031-0.072-0.324 0-0.446 0.005-0.571 0.021-0.162 0.022-0.399 0.071-0.483 0.1-0.037 0.012-0.146 0.012-0.611-0.006-3.381-0.132-6.926-0.236-7.253-0.214-0.070 0.005-0.127 0.005-0.127 0.001 0-0.011 0.396-0.323 0.737-0.581 1.589-1.199 2.96-1.985 3.865-2.214 0.256-0.064 0.508-0.081 1.634-0.112 0.278-0.007 0.557-0.015 0.621-0.017 0.286-0.009 2.409 0.004 2.581 0.016zM22.324 11.127c0.925 0.134 1.927 0.451 2.61 0.823 0.15 0.082 0.348 0.199 0.408 0.241l0.033 0.023-0.037 0.090c-0.161 0.391-0.424 0.729-0.687 0.881-0.139 0.080-0.147 0.081-0.307 0.044-0.584-0.134-1.042-0.133-1.228 0.001-0.025 0.018-0.1 0.101-0.167 0.186-0.152 0.19-0.414 0.463-0.5 0.522-0.064 0.043-0.070 0.044-0.317 0.075-0.7 0.087-1.112 0.109-1.224 0.068-0.018-0.006-0.025-0.017-0.022-0.038 0.219-1.433 0.512-2.391 0.853-2.778 0.053-0.059 0.166-0.14 0.219-0.156 0.058-0.017 0.151-0.014 0.366 0.018zM29.169 14.388c0.245 0.127 0.418 0.498 0.493 1.054 0.026 0.197 0.029 0.779 0.006 1.019-0.068 0.682-0.211 1.293-0.39 1.659-0.147 0.304-0.269 0.35-0.437 0.17-0.209-0.225-0.386-0.747-0.462-1.368-0.029-0.249-0.029-0.843 0-1.094 0.087-0.718 0.323-1.321 0.568-1.455 0.048-0.026 0.156-0.018 0.222 0.015zM17.358 14.586c-0.026 0.023-0.829 0.568-1.346 0.911-1.412 0.939-2.418 1.548-2.814 1.707-0.097 0.038-0.533 0.138-0.836 0.19-0.349 0.060-0.557 0.071-0.598 0.029-0.014-0.015-0.007-0.029 0.044-0.103 0.173-0.247 0.412-0.452 0.63-0.541 0.057-0.023 0.096-0.042 0.088-0.042s-0.308 0.025-0.67 0.055c-0.88 0.074-1.601 0.129-1.663 0.128-0.038-0.001-0.001-0.014 0.14-0.049 1.815-0.462 3.345-0.936 4.19-1.298 0.237-0.101 1.541-0.752 1.778-0.887l0.149-0.085 0.361-0.012c0.517-0.016 0.557-0.016 0.544-0.004zM3.904 15.492c-0.025 0.235-0.036 0.563-0.023 0.723 0.007 0.095 0.012 0.173 0.010 0.174-0.002 0.002-0.026-0.050-0.053-0.116-0.028-0.066-0.055-0.118-0.060-0.116-0.006 0.002-0.146 0.071-0.312 0.154-0.465 0.231-0.831 0.385-0.857 0.36-0.014-0.015 0.322-0.414 0.536-0.638 0.131-0.138 0.349-0.334 0.476-0.43 0.088-0.068 0.264-0.182 0.28-0.182 0.006 0 0.007 0.032 0.004 0.070zM20.065 15.741c0.236 0.069 0.525 0.259 0.712 0.468 0.687 0.769 0.896 2.251 0.471 3.34-0.355 0.911-1.069 1.465-1.888 1.465-0.446 0-0.783-0.145-1.094-0.469-0.199-0.208-0.318-0.396-0.465-0.725-0.108-0.242-0.152-0.38-0.176-0.536l-0.018-0.134 0.038-0.257c0.073-0.476 0.247-1.255 0.376-1.684 0.139-0.455 0.386-0.914 0.614-1.142 0.145-0.145 0.354-0.246 0.645-0.312 0.182-0.042 0.261-0.049 0.485-0.044 0.168 0.002 0.226 0.009 0.299 0.030zM3.967 16.592c0.028 0.064 0.026 0.080-0.001 0.025-0.020-0.036-0.041-0.098-0.031-0.088 0.004 0.004 0.018 0.032 0.032 0.064z"></path>
</symbol>
<symbol id="icon-chevron" viewBox="0 0 32 32">
<path stroke-linejoin="round" stroke-linecap="round" stroke-miterlimit="4" stroke-width="3.2" d="M8 12l8 8 8-8"></path>
</symbol>
</svg>
